# xmcd CD database file
#
# Track frame offsets:
#	150
#	15620
#	25792
#	40539
#	50501
#	73428
#	91164
#	105131
#	118678
#	126465
#	140784
#	153485
#
# Disc length: 2196 seconds
#
# Revision: 0
# Processed by: cddbd v1.4PL0 Copyright (c) Steve Scherf et al.
# Submitted via: CDex 1.51
#
DISCID=9f08920c
DTITLE=Deborah and Rick Hamouris - Welcome to Annwfn
DYEAR=1986
DGENRE=New Age
TTITLE0=Strolling Song
TTITLE1=Welcome to Annwfn
TTITLE2=Crone Song
TTITLE3=The Harvest
TTITLE4=We Are a Circle
TTITLE5=Bringing in the May
TTITLE6=Love as a River (The Valentine Song)
TTITLE7=Anthem to the Sun
TTITLE8=The Walls
TTITLE9=Horned One
TTITLE10=Goin' Up[ on the Mountain - Break 'Em On Down
TTITLE11=Faerie Shaman
EXTD=YEAR: 1986
EXTT0=
EXTT1=
EXTT2=
EXTT3=
EXTT4=
EXTT5=
EXTT6=
EXTT7=
EXTT8=
EXTT9=
EXTT10=
EXTT11=
PLAYORDER=
